<svg version="1.1" id="Layer_1" xmlns="http://www.w3.org/2000/svg" xmlns:xlink="http://www.w3.org/1999/xlink" x="0px" y="0px"
	 width="100%" viewBox="0 0 1542 1254" enable-background="new 0 0 1542 1254" xml:space="preserve">
<path fill="#FFFFFF" opacity="1.000000" stroke="none" 
	d="
M1054.000000,1255.000000 
	C702.666748,1255.000000 351.833466,1255.000000 1.000141,1255.000000 
	C1.000094,837.000122 1.000094,419.000275 1.000047,1.000309 
	C514.999756,1.000206 1028.999512,1.000206 1542.999512,1.000103 
	C1542.999634,418.999725 1542.999634,836.999451 1542.999756,1254.999512 
	C1380.166626,1255.000000 1217.333374,1255.000000 1054.000000,1255.000000 
M327.370178,461.885498 
	C316.022064,472.049103 304.673920,482.212708 292.395569,493.209473 
	C306.490753,494.905243 319.164337,496.435028 331.839294,497.953857 
	C363.745209,501.777191 395.644104,505.663177 427.573456,509.279785 
	C429.974030,509.551727 433.077759,508.522522 435.037018,507.027039 
	C455.020538,491.773285 474.321686,475.575439 494.799408,461.029358 
	C541.583862,427.796631 592.048645,401.428772 646.497742,382.955353 
	C707.240234,362.346771 770.133789,355.668854 833.810486,354.260681 
	C891.446289,352.986115 947.478149,364.210236 1002.877686,378.115082 
	C1029.381348,384.767303 1054.830078,395.614960 1080.770142,404.522827 
	C1091.604858,408.243500 1103.060547,410.683411 1113.223877,415.737061 
	C1150.311646,434.178741 1186.969971,453.484039 1223.805054,472.434570 
	C1225.930176,473.527802 1228.189087,474.360870 1230.385864,475.315002 
	C1230.586426,474.945862 1230.786987,474.576721 1230.987671,474.207550 
	C1229.708374,473.311218 1228.445068,472.391052 1227.147217,471.522278 
	C1217.185059,464.853546 1207.287964,458.084320 1197.235718,451.553986 
	C1169.316772,433.416718 1142.454834,413.248962 1113.113647,397.798340 
	C1068.048340,374.067444 1023.181335,350.023102 974.530518,333.085602 
	C903.658691,308.411926 831.566223,294.193420 756.624390,292.805176 
	C695.449585,291.671906 635.746643,299.614319 577.572144,318.589508 
	C484.494354,348.949310 401.736847,397.395538 327.370178,461.885498 
M1066.882324,782.406738 
	C1051.766968,792.744202 1036.943481,803.542542 1021.482971,813.335205 
	C968.666809,846.788757 912.372803,872.714050 851.155273,886.091309 
	C821.486389,892.574646 791.067566,896.009399 760.828552,899.399536 
	C726.652893,903.231018 692.305115,902.484314 658.002747,899.826050 
	C620.848755,896.946899 584.626465,888.501526 548.612305,879.935364 
	C522.045410,873.616272 496.415375,863.238892 470.535583,854.190063 
	C452.221954,847.786621 433.375122,843.011841 416.018738,833.701233 
	C382.302673,815.614563 348.107788,798.420166 314.093719,780.890137 
	C312.396606,780.015503 310.533783,779.462280 308.748108,778.759460 
	C330.065582,793.686218 351.471710,808.268372 373.146729,822.439087 
	C396.812073,837.911133 420.126587,853.901917 445.601807,866.513245 
	C487.149445,887.081116 527.423889,910.112549 572.201050,923.876404 
	C599.210876,932.178955 625.812988,941.781067 653.447388,947.951416 
	C688.458618,955.768799 723.874512,960.689575 759.724243,962.288391 
	C802.740784,964.206848 845.685059,963.979004 888.286499,956.656067 
	C947.582458,946.463501 1003.783936,926.943237 1057.654175,900.339111 
	C1127.834839,865.679932 1190.452271,820.365540 1247.130615,766.598511 
	C1248.174561,765.608215 1249.743530,765.171387 1251.067505,764.476318 
	C1248.345093,762.758179 1246.894531,762.368286 1245.418579,762.193115 
	C1202.101318,757.053040 1158.786011,751.894592 1115.448364,746.932861 
	C1113.344360,746.692017 1110.607544,747.656677 1108.895752,748.994324 
	C1094.984985,759.864868 1081.248535,770.958496 1066.882324,782.406738 
z"/>
<path fill="#DE3B3B" opacity="1.000000" stroke="none" 
	d="
M327.637634,461.653107 
	C401.736847,397.395538 484.494354,348.949310 577.572144,318.589508 
	C635.746643,299.614319 695.449585,291.671906 756.624390,292.805176 
	C831.566223,294.193420 903.658691,308.411926 974.530518,333.085602 
	C1023.181335,350.023102 1068.048340,374.067444 1113.113647,397.798340 
	C1142.454834,413.248962 1169.316772,433.416718 1197.235718,451.553986 
	C1207.287964,458.084320 1217.185059,464.853546 1227.147217,471.522278 
	C1228.445068,472.391052 1229.708374,473.311218 1230.987671,474.207550 
	C1230.786987,474.576721 1230.586426,474.945862 1230.385864,475.315002 
	C1228.189087,474.360870 1225.930176,473.527802 1223.805054,472.434570 
	C1186.969971,453.484039 1150.311646,434.178741 1113.223877,415.737061 
	C1103.060547,410.683411 1091.604858,408.243500 1080.770142,404.522827 
	C1054.830078,395.614960 1029.381348,384.767303 1002.877686,378.115082 
	C947.478149,364.210236 891.446289,352.986115 833.810486,354.260681 
	C770.133789,355.668854 707.240234,362.346771 646.497742,382.955353 
	C592.048645,401.428772 541.583862,427.796631 494.799408,461.029358 
	C474.321686,475.575439 455.020538,491.773285 435.037018,507.027039 
	C433.077759,508.522522 429.974030,509.551727 427.573456,509.279785 
	C395.644104,505.663177 363.745209,501.777191 331.839294,497.953857 
	C319.164337,496.435028 306.490753,494.905243 292.395569,493.209473 
	C304.673920,482.212708 316.022064,472.049103 327.637634,461.653107 
z"/>
<path fill="#DE3B3B" opacity="1.000000" stroke="none" 
	d="
M1067.170654,782.195435 
	C1081.248535,770.958496 1094.984985,759.864868 1108.895752,748.994324 
	C1110.607544,747.656677 1113.344360,746.692017 1115.448364,746.932861 
	C1158.786011,751.894592 1202.101318,757.053040 1245.418579,762.193115 
	C1246.894531,762.368286 1248.345093,762.758179 1251.067505,764.476318 
	C1249.743530,765.171387 1248.174561,765.608215 1247.130615,766.598511 
	C1190.452271,820.365540 1127.834839,865.679932 1057.654175,900.339111 
	C1003.783936,926.943237 947.582458,946.463501 888.286499,956.656067 
	C845.685059,963.979004 802.740784,964.206848 759.724243,962.288391 
	C723.874512,960.689575 688.458618,955.768799 653.447388,947.951416 
	C625.812988,941.781067 599.210876,932.178955 572.201050,923.876404 
	C527.423889,910.112549 487.149445,887.081116 445.601807,866.513245 
	C420.126587,853.901917 396.812073,837.911133 373.146729,822.439087 
	C351.471710,808.268372 330.065582,793.686218 308.748108,778.759460 
	C310.533783,779.462280 312.396606,780.015503 314.093719,780.890137 
	C348.107788,798.420166 382.302673,815.614563 416.018738,833.701233 
	C433.375122,843.011841 452.221954,847.786621 470.535583,854.190063 
	C496.415375,863.238892 522.045410,873.616272 548.612305,879.935364 
	C584.626465,888.501526 620.848755,896.946899 658.002747,899.826050 
	C692.305115,902.484314 726.652893,903.231018 760.828552,899.399536 
	C791.067566,896.009399 821.486389,892.574646 851.155273,886.091309 
	C912.372803,872.714050 968.666809,846.788757 1021.482971,813.335205 
	C1036.943481,803.542542 1051.766968,792.744202 1067.170654,782.195435 
z"/>
</svg>